<?xml version="1.0" encoding="UTF-8" standalone="no"?>
<!-- Created with Inkscape (http://www.inkscape.org/) -->

<svg
   width="210mm"
   height="297mm"
   viewBox="0 0 210 297"
   version="1.1"
   id="svg1"
   xmlns="http://www.w3.org/2000/svg"
   xmlns:svg="http://www.w3.org/2000/svg">
  <defs
     id="defs1" />
  <g
     id="layer1">
    <path
       style="fill:#000000;stroke-width:0.264583"
       id="path4"
       d="m 31.981888,76.052811 c -1.918409,-0.125386 -3.88204,-0.04096 -5.580869,0.982075 -1.678969,1.011079 -1.928483,1.582143 -3.190909,3.09729 -0.426343,0.749345 -0.916991,1.465595 -1.279031,2.248037 -1.577431,3.409151 -2.764984,8.234299 -2.555037,12.004627 0.04372,0.785104 0.252761,1.552194 0.379142,2.328291 0.804628,2.360264 4.039915,5.264129 6.368386,3.285705 1.542221,-1.310376 2.142703,-3.466688 2.77832,-5.28219 0.573915,-1.80599 0.91092,-3.671226 1.32928,-5.515972 0.04223,-0.186203 0.371697,-1.781286 0.554431,-2.148946 0.04087,-0.08224 0.152734,-0.10201 0.229103,-0.153016 -1.045983,-0.472591 -2.009037,-1.21045 -3.137948,-1.41777 -0.343966,-0.06317 0.343326,0.610613 0.484651,0.930502 0.208169,0.471189 0.375139,0.959523 0.562364,1.439418 0.654812,1.678401 1.278874,3.365657 1.895768,5.058299 0.623819,1.344499 1.147723,3.912979 2.502938,4.770991 1.275913,0.807802 2.604111,1.529897 3.906168,2.294845 1.488315,0.250523 2.761514,-0.614344 3.68741,-1.700652 0.99496,-1.201333 1.619536,-2.65312 2.180535,-4.094403 0.446534,-1.414296 0.901514,-2.821527 1.459013,-4.196623 0.133545,-0.329401 0.246051,-0.668829 0.408535,-0.984959 0.143708,-0.279603 0.337719,-0.530341 0.506579,-0.795512 0.258569,-0.164179 0.486915,-0.390501 0.775708,-0.492535 0.494922,-0.174863 1.498648,-0.136964 1.984322,-0.01349 0.340331,0.08651 1.276988,0.579581 0.972997,0.403802 -3.08619,-1.784554 -2.942907,-1.829408 -1.758256,-0.437226 0.137149,0.35012 0.354245,0.678709 0.411445,1.050356 0.138046,0.89694 -0.153326,2.457066 -0.333065,3.27166 -0.506233,2.294279 -1.401776,4.403243 -2.335176,6.547794 -0.326522,0.693233 -1.182158,2.192031 -1.179996,3.130091 5.29e-4,0.25756 0.09495,0.57724 0.319389,0.70359 1.364067,0.76793 2.750896,1.64863 4.296738,1.89514 0.553717,0.0883 0.973285,-0.58502 1.357431,-0.99348 0.615834,-0.6548 1.073933,-1.44178 1.6109,-2.16268 1.950133,-3.281313 1.312172,-2.109603 3.067328,-5.448155 0.403159,-0.766863 0.750795,-1.564444 1.196721,-2.307254 0.280461,-0.467177 0.560871,-0.958278 0.975738,-1.311547 0.177678,-0.1513 0.889802,0.01503 0.691682,-0.1083 -0.88219,-0.549185 -1.906463,-0.827558 -2.859696,-1.241337 1.082902,1.976077 1.450702,4.267221 2.574089,6.228148 0.15626,0.272762 0.356732,0.517692 0.535101,0.776537 1.318607,0.787863 2.553883,1.735878 3.955825,2.363578 0.251524,0.11262 0.562737,-0.08464 0.791795,-0.237871 1.429866,-0.956545 2.201825,-3.760795 2.705388,-5.290992 0.471625,-1.210392 0.632479,-4.067876 2.078911,-4.643596 0.943102,-0.37538 2.401448,-0.08023 3.308281,0.01603 0.601075,0.219323 1.27105,1.01319 1.803225,0.657966 0.503695,-0.336214 -1.353079,-1.287905 -1.650124,-0.760159 -0.311235,0.552955 0.90709,0.893839 1.290159,1.399688 1.013079,1.337784 1.586571,2.918206 2.17711,4.466341 0.197715,0.484712 0.547394,1.4776 0.917922,1.913544 0.187846,0.221009 0.422465,0.414689 0.686572,0.534604 1.453838,0.660101 2.890105,1.416169 4.441495,1.79374 0.211156,0.05139 2.193525,-0.855374 2.360697,-0.928817 0.349477,-0.182116 0.698958,-0.364228 1.048435,-0.546344 0,0 -3.224099,-2.114576 -3.224099,-2.114576 v 0 c -0.341516,0.176141 -0.683029,0.352282 -1.024546,0.528423 -0.379095,0.158657 -0.749106,0.341056 -1.137285,0.475975 -0.379888,0.132037 -1.350713,-0.03204 -1.162407,0.323331 0.466704,0.880774 1.609738,1.185688 2.328148,1.876677 0.204925,0.197098 -0.555376,-0.183923 -0.766365,-0.374516 -0.415912,-0.3757 -0.805516,-1.426789 -1.002237,-1.873546 -0.614293,-1.578986 -1.194638,-3.212936 -2.176724,-4.613288 -1.844178,-2.629609 -4.884563,-4.192048 -7.936688,-4.999463 -1.200861,-0.08757 -2.405271,-0.353095 -3.563384,0.198344 -1.537658,0.732161 -1.618544,3.476472 -2.112338,4.845005 -0.481939,1.454336 -0.919351,3.047717 -1.90264,4.268095 -0.192604,0.239045 -0.415803,0.474456 -0.692809,0.606769 -0.188436,0.09001 -0.787794,-0.108908 -0.626062,0.0232 0.803325,0.656179 1.766974,1.086926 2.650463,1.630391 -0.193905,-0.241205 -0.414295,-0.463328 -0.581713,-0.723617 -1.231445,-1.914564 -1.646991,-4.233354 -2.499656,-6.311259 -1.323202,-0.819505 -2.546691,-1.827837 -3.96961,-2.458517 -0.249912,-0.11077 -0.544772,0.173895 -0.728773,0.376055 -0.37609,0.4132 -0.632815,0.923333 -0.900359,1.413836 -0.414187,0.759354 -0.748686,1.559724 -1.141812,2.33019 -1.563648,3.064513 -1.250339,2.421152 -3.080292,5.364787 -0.552744,0.664327 -1.026073,1.40372 -1.658234,1.99298 -0.368911,0.34388 -1.499494,0.30316 -1.303634,0.7679 0.403267,0.95689 1.621883,1.29724 2.442247,1.93383 0.181242,0.14064 -0.480653,-0.22046 -0.524468,-0.44565 -0.17136,-0.88072 0.768549,-2.5562 1.02134,-3.12543 0.93572,-2.163051 1.873329,-4.290531 2.436505,-6.588085 0.183065,-0.746845 0.564626,-2.570631 0.495859,-3.410593 -0.03307,-0.403879 -0.234972,-0.775653 -0.352455,-1.163479 -1.535858,-2.145199 -0.656489,-1.171763 -4.841075,-3.464692 -0.881055,-0.482772 -2.266511,-0.516485 -3.176294,-0.09721 -0.322379,0.148569 -0.573543,0.418393 -0.860314,0.627589 -0.176512,0.286279 -0.378624,0.558273 -0.529537,0.858835 -0.160192,0.319045 -0.267309,0.662082 -0.400439,0.993333 -0.552694,1.375195 -1.030256,2.774913 -1.487353,4.18474 -0.543512,1.401048 -1.177536,2.796574 -2.143786,3.96196 -0.855816,0.980819 -2.0456,1.750468 -3.374088,1.259864 0.920284,0.545791 1.822267,1.123688 2.76085,1.637372 0.218032,0.119329 -0.416163,-0.277207 -0.593611,-0.451245 -1.128935,-1.107223 -1.4478,-2.809451 -2.097895,-4.187531 -0.624528,-1.682782 -1.259985,-3.36256 -1.873916,-5.04916 -0.173197,-0.475808 -0.335069,-0.955662 -0.502412,-1.433558 -0.121174,-0.346045 -0.07033,-0.81761 -0.363141,-1.038272 -1.179433,-0.88881 -2.581352,-1.435545 -3.872029,-2.153317 -0.0921,0.119655 -0.221028,0.218448 -0.27631,0.35896 -0.107338,0.27282 -0.140004,0.569476 -0.201736,0.856078 -0.09719,0.451226 -0.182214,0.904989 -0.274995,1.357143 -0.378275,1.843448 -0.693439,3.703654 -1.24877,5.505479 -0.522691,1.46163 -0.774384,2.478424 -1.649734,3.765143 -0.300159,0.441219 -0.636841,0.877287 -1.066131,1.194273 -0.305963,0.225923 -1.259011,0.05365 -1.073788,0.385837 0.425081,0.762352 1.263583,1.460254 2.134612,1.516676 0.562595,0.03644 -0.595438,-0.957506 -0.893157,-1.436258 -0.154597,-0.762434 -0.397649,-1.512168 -0.463792,-2.2873 -0.330961,-3.878587 0.826369,-8.349456 2.495127,-11.827972 0.363231,-0.757153 0.846875,-1.450401 1.270312,-2.175603 1.25871,-1.456708 1.476761,-1.983616 3.153336,-2.909112 1.721966,-0.950553 3.693178,-0.930902 5.587928,-0.76459 z" />
    <path
       style="fill:#000000;stroke-width:0.264583"
       id="path5"
       d="m 93.821328,76.766184 c -1.270227,0.08748 -2.640324,0.399973 -3.590658,1.317826 -0.915611,0.884324 -1.086712,1.522552 -1.65342,2.680774 -0.531157,1.718021 -0.82154,2.444438 -1.101453,4.258778 -0.576405,3.736181 -0.408265,7.825483 -0.386101,11.600317 0.02619,3.680171 0.07113,7.360351 0.04957,11.040651 0,0 3.442512,1.74402 3.442512,1.74402 v 0 c -0.190635,-3.71345 -0.244303,-7.43246 -0.282141,-11.150146 0.0031,-3.756784 -0.143846,-7.758015 0.45272,-11.476329 0.294839,-1.837697 0.554916,-2.418931 1.116886,-4.141956 0.550989,-1.065983 0.729919,-1.685944 1.61272,-2.475413 0.944798,-0.844912 2.289403,-1.081381 3.508333,-1.047522 z" />
    <path
       style="fill:#000000;stroke-width:0.264583"
       id="path6"
       d="m 88.334568,99.42891 c 4.328885,-2.395424 8.646343,-4.808254 12.939122,-7.267877 2.21083,-1.204526 1.15291,-0.730125 3.14145,-1.493115 0,0 -3.17734,-2.121916 -3.17734,-2.121916 v 0 c -1.931845,0.871858 -0.90382,0.353007 -3.057501,1.608151 -4.282742,2.543995 -8.63591,4.962305 -13.115062,7.146414 z" />
    <path
       style="fill:#000000;stroke-width:0.264583"
       id="path7"
       d="m 106.64281,91.119207 c -1.76355,2.078064 -3.10547,4.454674 -4.32474,6.879781 -0.0974,0.324839 -0.25762,0.637159 -0.29214,0.974518 -0.19281,1.884784 3.71247,2.626444 4.20445,2.785934 0.36008,0.11674 0.72671,-0.23523 1.05049,-0.43131 0.96042,-0.58163 1.429,-1.21169 2.18183,-2.02903 0.72188,-0.657537 1.00789,-1.613374 1.58511,-2.367571 0.66157,-0.864399 4.27563,-1.842402 -2.59143,-1.747287 -0.46244,0.0064 0.24562,0.893156 0.32628,1.348557 0.12319,0.695423 0.18967,1.399707 0.2845,2.099559 0.38092,2.050692 0.40524,4.206212 1.01679,6.215002 0.16909,0.55545 0.60504,1.6549 1.22788,1.99178 1.33849,0.72396 2.76846,1.26423 4.15268,1.89635 1.28909,-0.86223 1.92411,-2.25689 2.65807,-3.56127 0.14571,-0.25896 0.27526,-0.52979 0.45409,-0.76708 0.12216,-0.16208 0.2938,-0.28011 0.44069,-0.42017 1.99352,0.12441 3.92728,0.75776 5.91403,0.95698 0.48247,0.0484 0.96938,0.0277 1.45407,0.0416 0.79234,-0.17563 2.03804,-0.44224 2.05098,-1.51891 0.0172,-1.43428 -3.79833,-2.79159 -3.96853,-2.86891 -0.19502,-0.0886 -0.37856,0.20055 -0.56783,0.30083 -0.90861,1.05118 -0.86761,2.04491 0.4056,2.81983 3.9683,2.41524 2.90061,2.02578 5.46874,2.72573 0.37862,-0.047 0.7868,0.0129 1.13586,-0.14106 1.89425,-0.83572 2.27911,-3.60073 1.98508,-5.3843 -0.076,-0.46083 -0.27217,-0.89356 -0.40826,-1.340342 -0.17468,-0.314444 -0.30728,-0.656275 -0.52404,-0.943329 -0.16153,-0.2139 -0.36206,-0.408948 -0.59596,-0.53984 -1.29881,-0.726821 -2.61107,-1.440249 -3.9812,-2.021557 -0.0655,-0.02778 -1.20917,0.234029 -0.50767,0.680579 1.32642,0.844344 2.8111,1.4096 4.21665,2.1144 1.85441,-0.04483 3.59822,-0.717627 5.35745,-1.22513 1.23345,-0.355827 2.4488,-0.805484 3.76456,-0.689517 0.48413,0.04267 0.93259,0.274039 1.39888,0.411062 -0.71968,-0.305483 -1.4199,-1.17126 -2.15904,-0.916448 -0.5097,0.175715 0.62797,0.880594 0.87899,1.357733 0.46617,0.886111 0.86691,2.154378 1.17688,3.106069 0.1435,0.44061 0.24648,0.89531 0.41739,1.32602 0.14445,0.36402 0.35048,0.70047 0.52572,1.0507 1.61875,1.5211 1.68139,1.72323 5.03921,2.68744 0.50569,0.14522 2.23418,-1.16778 2.43426,-1.30627 2.79635,-1.93549 0.1674,-0.17398 3.10588,-2.11798 1.29698,-0.73406 2.6207,-1.83582 4.21052,-1.78112 0.31559,0.0108 1.17953,0.41392 0.91672,0.23885 -3.62584,-2.415393 -3.09563,-1.935093 -2.13909,-0.7588 0.34338,0.92917 0.27272,0.46663 0.25409,1.38053 0,0 3.47465,1.79428 3.47465,1.79428 v 0 c 0.0889,-1.07476 0.13333,-0.53324 -0.15831,-1.62232 -0.15573,-0.25701 -0.22001,-0.60013 -0.4672,-0.77101 -0.7653,-0.52906 -3.25068,-2.605666 -5.03479,-2.466659 -1.59178,0.124021 -2.90243,1.187368 -4.2223,1.956649 -1.05303,0.68954 -2.08796,1.40674 -3.14765,2.08602 -0.41471,0.26584 -0.81502,0.56327 -1.26455,0.76471 -0.33748,0.15124 -1.27394,-0.0276 -1.07282,0.28272 0.53933,0.83225 1.60879,1.1605 2.39761,1.76158 0.2592,0.1975 -0.53868,-0.36688 -0.80801,-0.55032 -0.19393,-0.33289 -0.42744,-0.64569 -0.58178,-0.99868 -0.18854,-0.43125 -0.29402,-0.89423 -0.44128,-1.34127 -0.31339,-0.95128 -0.72205,-2.27844 -1.14421,-3.182507 -0.2361,-0.505627 -0.38079,-1.109642 -0.81177,-1.46413 -1.35039,-1.110727 -2.94264,-1.88943 -4.41396,-2.834146 -0.48165,-0.09524 -0.95411,-0.274031 -1.44494,-0.28571 -2.99645,-0.07128 -6.05892,2.110137 -9.13995,1.747978 0.85345,0.578522 1.70689,1.157046 2.56033,1.735571 -0.13837,0.0736 -0.38316,0.06737 -0.41511,0.220803 -0.0255,0.122404 0.47406,0.05067 0.37427,-0.02466 -0.87776,-0.662594 -1.85383,-1.183857 -2.77371,-1.786607 -0.2233,-0.146312 0.49636,0.226917 0.68368,0.417123 0.24829,0.252122 0.39583,0.586666 0.59375,0.879999 0.15572,0.418807 0.37357,0.819513 0.46716,1.256422 0.33291,1.554074 0.0977,4.237114 -1.72088,4.848554 -0.32947,0.11077 -0.69485,0.0215 -1.04228,0.0323 -1.99894,-0.6563 -1.35602,-0.54192 1.18335,1.05933 0.27703,0.17469 -0.59563,-0.2912 -0.84086,-0.5083 -0.58735,-0.51997 -0.37522,-1.06996 0.0981,-1.53683 1.47949,-0.14036 0.68984,0.0104 -2.52113,-1.83426 -0.1361,-0.0782 0.28237,0.18236 0.33605,0.32986 0.16057,0.44117 -0.34322,0.75734 -0.64408,0.8846 -0.32607,0.13793 -0.68916,0.16259 -1.03373,0.24389 -0.46839,-0.022 -0.93917,-0.0138 -1.40517,-0.0659 -0.47762,-0.0534 -2.72874,-0.47786 -3.20366,-0.56653 -0.44734,-0.0835 -1.77193,-0.3793 -2.33181,-0.34368 -0.23804,0.0151 -0.45907,0.12973 -0.6886,0.19459 -0.15444,0.17262 -0.33146,0.32742 -0.4633,0.51785 -0.93621,1.35223 -1.32382,3.16085 -2.89813,3.97268 0.86444,0.62347 1.72057,1.25861 2.59331,1.8704 0.26642,0.18677 -0.57351,-0.33855 -0.77384,-0.59494 -0.28464,-0.36427 -0.49445,-0.78999 -0.6488,-1.22575 -0.6755,-1.90693 -0.71294,-4.21807 -1.06214,-6.19383 -0.0668,-0.693848 -0.13004,-1.388043 -0.20037,-2.081537 -0.0497,-0.489876 0.19846,-1.130593 -0.15967,-1.468517 -2.24407,-2.117457 -3.14073,-3.455654 -4.32947,-1.73305 -0.24879,0.360524 -0.42602,0.766475 -0.66733,1.132049 -0.26726,0.404911 -0.57106,0.784479 -0.8566,1.176719 -0.72209,0.755433 -1.17447,1.369192 -2.12644,1.842148 -0.30338,0.150725 -1.1833,-0.0075 -0.98127,0.264451 0.64121,0.863077 1.73203,1.274497 2.59805,1.911737 -0.0873,-0.17028 -0.25676,-0.31954 -0.262,-0.51084 -0.009,-0.31811 0.14836,-0.61893 0.22255,-0.928393 1.1603,-2.42379 2.47703,-4.801484 4.3705,-6.739094 z" />
    <circle
       id="path8"
       style="fill:#000000;stroke:#000000;stroke-width:0.264583"
       cx="74.341103"
       cy="106.0454"
       r="0.048540011" />
  </g>
</svg>
